<svg width="19" height="18" viewBox="0 0 19 18" fill="none" xmlns="http://www.w3.org/2000/svg">
<path d="M16.8125 3.375H11.75C11.3134 3.375 10.8827 3.47666 10.4922 3.67192C10.1017 3.86719 9.76198 4.1507 9.5 4.5C9.23802 4.1507 8.89832 3.86719 8.50779 3.67192C8.11726 3.47666 7.68663 3.375 7.25 3.375H2.1875C2.03832 3.375 1.89524 3.43426 1.78975 3.53975C1.68426 3.64524 1.625 3.78832 1.625 3.9375V14.0625C1.625 14.2117 1.68426 14.3548 1.78975 14.4602C1.89524 14.5657 2.03832 14.625 2.1875 14.625H7.25C7.69755 14.625 8.12678 14.8028 8.44324 15.1193C8.75971 15.4357 8.9375 15.8649 8.9375 16.3125C8.9375 16.4617 8.99676 16.6048 9.10225 16.7102C9.20774 16.8157 9.35082 16.875 9.5 16.875C9.64918 16.875 9.79226 16.8157 9.89775 16.7102C10.0032 16.6048 10.0625 16.4617 10.0625 16.3125C10.0625 15.8649 10.2403 15.4357 10.5568 15.1193C10.8732 14.8028 11.3024 14.625 11.75 14.625H16.8125C16.9617 14.625 17.1048 14.5657 17.2102 14.4602C17.3157 14.3548 17.375 14.2117 17.375 14.0625V3.9375C17.375 3.78832 17.3157 3.64524 17.2102 3.53975C17.1048 3.43426 16.9617 3.375 16.8125 3.375ZM7.25 13.5H2.75V4.5H7.25C7.69755 4.5 8.12678 4.67779 8.44324 4.99426C8.75971 5.31072 8.9375 5.73995 8.9375 6.1875V14.0625C8.45112 13.6965 7.8587 13.499 7.25 13.5ZM16.25 13.5H11.75C11.1413 13.499 10.5489 13.6965 10.0625 14.0625V6.1875C10.0625 5.73995 10.2403 5.31072 10.5568 4.99426C10.8732 4.67779 11.3024 4.5 11.75 4.5H16.25V13.5ZM11.75 6.1875H14.5625C14.7117 6.1875 14.8548 6.24676 14.9602 6.35225C15.0657 6.45774 15.125 6.60082 15.125 6.75C15.125 6.89918 15.0657 7.04226 14.9602 7.14775C14.8548 7.25324 14.7117 7.3125 14.5625 7.3125H11.75C11.6008 7.3125 11.4577 7.25324 11.3523 7.14775C11.2468 7.04226 11.1875 6.89918 11.1875 6.75C11.1875 6.60082 11.2468 6.45774 11.3523 6.35225C11.4577 6.24676 11.6008 6.1875 11.75 6.1875ZM15.125 9C15.125 9.14918 15.0657 9.29226 14.9602 9.39775C14.8548 9.50324 14.7117 9.5625 14.5625 9.5625H11.75C11.6008 9.5625 11.4577 9.50324 11.3523 9.39775C11.2468 9.29226 11.1875 9.14918 11.1875 9C11.1875 8.85082 11.2468 8.70774 11.3523 8.60225C11.4577 8.49676 11.6008 8.4375 11.75 8.4375H14.5625C14.7117 8.4375 14.8548 8.49676 14.9602 8.60225C15.0657 8.70774 15.125 8.85082 15.125 9ZM15.125 11.25C15.125 11.3992 15.0657 11.5423 14.9602 11.6477C14.8548 11.7532 14.7117 11.8125 14.5625 11.8125H11.75C11.6008 11.8125 11.4577 11.7532 11.3523 11.6477C11.2468 11.5423 11.1875 11.3992 11.1875 11.25C11.1875 11.1008 11.2468 10.9577 11.3523 10.8523C11.4577 10.7468 11.6008 10.6875 11.75 10.6875H14.5625C14.7117 10.6875 14.8548 10.7468 14.9602 10.8523C15.0657 10.9577 15.125 11.1008 15.125 11.25Z" fill="#7B68EE"/>
</svg>
