<svg width="17" height="16" viewBox="0 0 17 16" fill="none" xmlns="http://www.w3.org/2000/svg">
<path d="M14.8088 8.94584H9.92399V13.7883C9.92399 14.5679 9.2864 15.2 8.4999 15.2C7.7134 15.2 7.07581 14.5679 7.07581 13.7883V8.94584H2.19104C1.45741 8.87053 0.899902 8.25767 0.899902 7.52651C0.899902 6.79535 1.45741 6.18249 2.19104 6.10718H7.0605V1.27994C7.13647 0.552669 7.75469 0 8.49225 0C9.2298 0 9.84802 0.552669 9.92399 1.27994V6.10718H14.8088C15.5424 6.18249 16.0999 6.79535 16.0999 7.52651C16.0999 8.25767 15.5424 8.87053 14.8088 8.94584Z" fill="white"/>
</svg>
