<svg width="16" height="16" viewBox="0 0 16 16" fill="none" xmlns="http://www.w3.org/2000/svg">
<path d="M14.3089 9.34586H9.42411V14.1883C9.42411 14.968 8.78653 15.6 8.00002 15.6C7.21352 15.6 6.57594 14.968 6.57594 14.1883V9.34586H1.69116C0.957527 9.27055 0.400024 8.65769 0.400024 7.92653C0.400024 7.19537 0.957527 6.58252 1.69116 6.5072H6.56062V1.67996C6.63659 0.952693 7.25481 0.400024 7.99237 0.400024C8.72992 0.400024 9.34814 0.952693 9.42411 1.67996V6.5072H14.3089C15.0425 6.58252 15.6 7.19537 15.6 7.92653C15.6 8.65769 15.0425 9.27055 14.3089 9.34586Z" fill="#49CCF9"/>
</svg>
