<svg width="11" height="19" viewBox="0 0 11 19" fill="none" xmlns="http://www.w3.org/2000/svg">
<path d="M10.4987 10.4461L2.81088 18.134C2.59424 18.3506 2.30042 18.4723 1.99404 18.4723C1.68767 18.4723 1.39385 18.3506 1.17721 18.134C0.960573 17.9173 0.838867 17.6235 0.838867 17.3171C0.838867 17.0108 0.960573 16.7169 1.17721 16.5003L8.04919 9.63025L1.17913 2.75827C1.07186 2.651 0.986775 2.52365 0.928722 2.3835C0.870669 2.24335 0.840789 2.09313 0.840789 1.94143C0.840789 1.78973 0.870669 1.63952 0.928722 1.49937C0.986775 1.35921 1.07186 1.23187 1.17913 1.1246C1.2864 1.01733 1.41375 0.932241 1.5539 0.874188C1.69405 0.816135 1.84427 0.786255 1.99597 0.786255C2.14767 0.786255 2.29788 0.816135 2.43803 0.874188C2.57819 0.932241 2.70553 1.01733 2.8128 1.1246L10.5007 8.81245C10.608 8.91971 10.6932 9.04711 10.7512 9.18735C10.8093 9.32759 10.839 9.47791 10.8389 9.62968C10.8387 9.78146 10.8086 9.9317 10.7502 10.0718C10.6918 10.2119 10.6064 10.3391 10.4987 10.4461Z" fill="#7B68EE"/>
</svg>
