<svg width="22" height="22" viewBox="0 0 22 22" fill="none" xmlns="http://www.w3.org/2000/svg">
<path d="M11.0111 13.5943C9.54031 13.5943 8.35059 12.4484 8.35059 11.0093C8.35059 9.5701 9.54031 8.4151 11.0111 8.4151C12.4818 8.4151 13.6435 9.5701 13.6435 11.0093C13.6435 12.4484 12.4818 13.5943 11.0111 13.5943Z" fill="black"/>
<path opacity="0.4" d="M19.4609 13.1726C19.2829 12.8976 19.03 12.6226 18.7021 12.4484C18.4398 12.3201 18.2712 12.1093 18.1213 11.8618C17.6435 11.0734 17.9246 10.0376 18.7208 9.5701C19.6576 9.0476 19.9574 7.88344 19.4141 6.97594L18.7864 5.89427C18.2524 4.98677 17.0815 4.66594 16.154 5.1976C15.3296 5.6376 14.2711 5.34427 13.7933 4.5651C13.6434 4.30844 13.5591 4.03344 13.5778 3.75844C13.6059 3.40094 13.4935 3.06177 13.3249 2.78677C12.9783 2.21844 12.3506 1.83344 11.6574 1.83344H10.3365C9.65268 1.85177 9.02502 2.21844 8.67841 2.78677C8.50042 3.06177 8.39737 3.40094 8.41611 3.75844C8.43484 4.03344 8.35053 4.30844 8.20065 4.5651C7.72288 5.34427 6.6643 5.6376 5.84929 5.1976C4.9125 4.66594 3.75087 4.98677 3.20753 5.89427L2.57988 6.97594C2.04591 7.88344 2.34568 9.0476 3.27311 9.5701C4.06938 10.0376 4.35042 11.0734 3.88202 11.8618C3.72277 12.1093 3.55415 12.3201 3.29184 12.4484C2.97333 12.6226 2.6923 12.8976 2.54241 13.1726C2.19579 13.7409 2.21453 14.4559 2.56114 15.0518L3.20753 16.1518C3.55415 16.7384 4.20053 17.1051 4.87503 17.1051C5.19354 17.1051 5.56825 17.0134 5.86803 16.8301C6.10223 16.6743 6.38326 16.6193 6.69241 16.6193C7.61983 16.6193 8.39737 17.3801 8.41611 18.2876C8.41611 19.3418 9.27796 20.1668 10.3646 20.1668H11.6387C12.716 20.1668 13.5778 19.3418 13.5778 18.2876C13.6059 17.3801 14.3835 16.6193 15.3109 16.6193C15.6107 16.6193 15.8917 16.6743 16.1353 16.8301C16.4351 17.0134 16.8004 17.1051 17.1283 17.1051C17.7934 17.1051 18.4398 16.7384 18.7864 16.1518L19.4422 15.0518C19.7794 14.4376 19.8075 13.7409 19.4609 13.1726Z" fill="black"/>
</svg>
